<svg width="8" height="8" viewBox="0 0 8 8" fill="none" xmlns="http://www.w3.org/2000/svg">
<path d="M7.5 6V1.5C7.5 0.947715 7.05228 0.5 6.5 0.5H1.5C0.947715 0.5 0.5 0.947715 0.5 1.5V5.5M7.5 6V6.5C7.5 7.05228 7.05228 7.5 6.5 7.5H1.5C0.947715 7.5 0.5 7.05228 0.5 6.5V5.5M7.5 6H7.16228C7.0548 6 6.94802 5.98267 6.84605 5.94868L5.5 5.5L3.71815 5.05454C3.57451 5.01863 3.42469 5.01506 3.2795 5.0441L1.0971 5.48058C1.03252 5.4935 0.966832 5.5 0.90098 5.5H0.5M2.25 2.25C2.38807 2.38807 2.38807 2.61193 2.25 2.75C2.11193 2.88807 1.88807 2.88807 1.75 2.75C1.61193 2.61193 1.61193 2.38807 1.75 2.25C1.88807 2.11193 2.11193 2.11193 2.25 2.25Z" stroke="white"/>
</svg>
